<svg width="176" height="140" viewBox="0 0 176 140" fill="none" xmlns="http://www.w3.org/2000/svg">
<g clip-path="url(#clip0_2533_10249)">
<path d="M131.799 15.7283C134.923 15.7283 137.456 13.1953 137.456 10.0706C137.456 6.94597 134.923 4.41293 131.799 4.41293C128.675 4.41293 126.142 6.94597 126.142 10.0706C126.142 13.1953 128.675 15.7283 131.799 15.7283Z" fill="#2F2E41"/>
<path d="M127.802 13.5229C127.802 13.5229 126.983 23.8283 126.001 23.8283C125.02 23.8283 137.457 23.3433 137.457 23.3433C137.457 23.3433 132.22 16.5539 134.838 14.3716C137.457 12.1893 127.802 13.5229 127.802 13.5229Z" fill="#9F616A"/>
<path opacity="0.1" d="M127.802 13.5229C127.802 13.5229 126.983 23.8283 126.001 23.8283C125.02 23.8283 137.457 23.3433 137.457 23.3433C137.457 23.3433 132.22 16.5539 134.838 14.3716C137.457 12.1893 127.802 13.5229 127.802 13.5229Z" fill="black"/>
<path d="M104.919 132.02C93.5388 132.02 82.5107 128.073 73.7137 120.853C64.9167 113.632 58.8951 103.584 56.6749 92.4212C54.4547 81.2581 56.1733 69.6703 61.5379 59.6324C66.9024 49.5945 75.581 41.7274 86.0948 37.3717C96.6087 33.0161 108.307 32.4412 119.197 35.7452C130.088 39.0492 139.495 46.0275 145.818 55.4912C152.14 64.9548 154.986 76.3183 153.871 87.6454C152.755 98.9724 147.748 109.562 139.701 117.61C135.144 122.193 129.723 125.826 123.753 128.3C117.783 130.773 111.381 132.037 104.919 132.02ZM104.919 34.1371C78.0773 34.1371 56.2399 55.9778 56.2399 82.8235C56.2399 109.669 78.0773 131.51 104.919 131.51C131.761 131.51 153.598 109.669 153.598 82.8235C153.598 55.9778 131.761 34.1371 104.919 34.1371Z" fill="#3F3D56"/>
<path d="M142.495 36.0696L136.777 37.706L144.764 37.3417C146.559 37.2441 148.324 37.8378 149.695 39.001C151.118 40.233 152.265 42.1873 151.16 45.0762C148.952 50.854 145.553 56.2919 145.553 56.2919L143.345 60.5403C143.345 60.5403 138.757 61.22 138.587 59.8605C138.417 58.501 138.587 57.8213 139.437 57.1416C140.286 56.4618 140.796 55.1023 140.796 54.4226C140.796 53.7429 140.626 53.0631 141.136 52.7233C141.645 52.3834 141.815 51.8736 141.815 50.854C141.815 49.8344 144.763 45.3531 144.763 45.3531C144.763 45.3531 138.587 43.2069 135.928 45.0132C133.268 46.8196 127.883 54.7625 127.883 54.7625C127.529 55.1321 127.233 55.5526 127.005 56.0101C126.732 56.541 126.354 57.0111 125.894 57.3916C125.4 57.8259 125.855 59.0221 126.014 59.1808C126.184 59.3507 127.883 66.1481 127.883 66.1481C127.883 66.1481 129.752 69.3769 127.713 69.5468C125.674 69.7168 123.805 69.8867 123.635 69.5468C123.446 69.0758 123.219 68.6211 122.955 68.1874C122.446 67.3377 122.955 65.4684 122.955 65.4684C122.955 65.4684 118.028 59.1808 119.557 55.2723C121.086 51.3638 124.315 42.5271 124.315 42.5271L129.242 40.4879L138.247 37.2592L142.495 36.0696Z" fill="#2F2E41"/>
<path d="M108.174 17.7171L101.207 16.3577C101.207 16.3577 99.5082 10.5799 97.4693 11.2596C95.4304 11.9393 98.8286 17.7171 98.8286 17.7171L108.513 22.1355L108.174 17.7171Z" fill="#A0616A"/>
<path d="M150.481 23.4943L153.539 27.4028C153.539 27.4028 157.957 27.2328 156.597 29.6119C155.238 31.991 152.18 30.6315 152.01 30.1217C151.84 29.6119 146.913 25.1936 146.913 25.1936L150.481 23.4943Z" fill="#A0616A"/>
<path d="M134.568 18.3333L130.151 21.732L127.432 17.6536L106.363 16.4641V23.4314C111.548 21.934 116.321 21.4702 120.126 23.4314C124.942 29.8455 126.002 36.8106 122.955 44.3781L147.821 35.6667C140.369 32.8911 136.909 28.8673 137.967 23.4314L146.632 26.4902L151.899 22.5817C147.189 19.4117 140.179 17.4236 134.568 18.3333Z" fill="#6C63FF"/>
<path d="M87.8431 140C136.358 140 175.686 137.033 175.686 133.372C175.686 129.712 136.358 126.745 87.8431 126.745C39.3287 126.745 0 129.712 0 133.372C0 137.033 39.3287 140 87.8431 140Z" fill="#3F3D56"/>
<path opacity="0.1" d="M63.2909 137.621C96.0874 137.621 122.674 135.643 122.674 133.203C122.674 130.763 96.0874 128.784 63.2909 128.784C30.4944 128.784 3.90756 130.763 3.90756 133.203C3.90756 135.643 30.4944 137.621 63.2909 137.621Z" fill="black"/>
<path d="M158.893 124.376C158.327 129.337 161.376 133.759 161.376 133.759C161.376 133.759 165.342 130.138 165.908 125.177C166.474 120.217 163.425 115.795 163.425 115.795C163.425 115.795 159.459 119.416 158.893 124.376Z" fill="#2F2E41"/>
<path d="M161.055 124.121C163.095 128.678 161.527 133.815 161.527 133.815C161.527 133.815 156.651 131.564 154.611 127.007C152.57 122.451 154.139 117.314 154.139 117.314C154.139 117.314 159.015 119.564 161.055 124.121Z" fill="#6C63FF"/>
<path d="M106.288 133.111C116.803 133.111 125.327 124.585 125.327 114.069C125.327 103.552 116.803 95.0265 106.288 95.0265C95.7726 95.0265 87.2484 103.552 87.2484 114.069C87.2484 124.585 95.7726 133.111 106.288 133.111Z" fill="#F2F2F2"/>
<path d="M106.288 84.712L101.598 96.4396L84.6376 96.5756L79.1124 96.6202L66.0007 96.7257L60.4778 96.7703L47.3661 96.8758L41.8433 96.9204L28.7315 97.0283L23.2087 97.0729L14.3581 97.1432L12.6462 93.639L10.4253 89.1005L9.19879 86.5884L8.49524 84.712L12.7048 71.3778C13.1163 70.075 13.9322 68.9371 15.0341 68.1295C16.136 67.3218 17.4666 66.8863 18.8327 66.8862H95.4206C96.7471 66.8869 98.0408 67.298 99.1245 68.0631C100.208 68.8282 101.029 69.9098 101.473 71.1597L101.961 72.5341L106.288 84.712Z" fill="#6C63FF"/>
<path d="M106.288 84.712H8.49524V109.34H106.288V84.712Z" fill="#6C63FF"/>
<path opacity="0.1" d="M106.288 84.712H8.49524V109.34H106.288V84.712Z" fill="black"/>
<path d="M107.731 50.883H104.846V53.7682H107.731V50.883Z" fill="#3F3D56"/>
<path d="M115.52 112.626H112.635V115.511H115.52V112.626Z" fill="#3F3D56"/>
<path d="M88.5823 52.9298H25.9668V131.739H88.5823V52.9298Z" fill="#F2F2F2"/>
<path d="M57.3916 58.5595H39.0994V61.1396H57.3916V58.5595Z" fill="#3F3D56"/>
<path d="M84.5955 69.1144H29.4844V70.2872H84.5955V69.1144Z" fill="#E6E6E6"/>
<path d="M84.5955 72.8672H29.4844V74.04H84.5955V72.8672Z" fill="#E6E6E6"/>
<path d="M84.5955 76.62H29.4844V77.7927H84.5955V76.62Z" fill="#E6E6E6"/>
<path d="M84.5955 80.372H29.4844V81.5447H84.5955V80.372Z" fill="#E6E6E6"/>
<path d="M84.5955 84.1248H29.4844V85.2975H84.5955V84.1248Z" fill="#E6E6E6"/>
<path d="M84.5955 87.8788H29.4844V89.0515H84.5955V87.8788Z" fill="#E6E6E6"/>
<path d="M31.8297 63.2504C31.0412 63.2504 30.2704 63.0166 29.6148 62.5784C28.9592 62.1403 28.4482 61.5175 28.1465 60.789C27.8447 60.0604 27.7658 59.2586 27.9196 58.4852C28.0734 57.7117 28.4531 57.0012 29.0107 56.4436C29.5682 55.8859 30.2786 55.5062 31.052 55.3523C31.8253 55.1985 32.6269 55.2774 33.3554 55.5792C34.0839 55.881 34.7065 56.3921 35.1446 57.0478C35.5827 57.7035 35.8165 58.4744 35.8165 59.2631C35.8153 60.3202 35.3949 61.3337 34.6475 62.0812C33.9001 62.8288 32.8867 63.2492 31.8297 63.2504ZM31.8297 55.7448C31.134 55.7448 30.4539 55.9511 29.8754 56.3377C29.2969 56.7243 28.846 57.2738 28.5798 57.9167C28.3135 58.5596 28.2439 59.267 28.3796 59.9494C28.5153 60.6319 28.8504 61.2588 29.3423 61.7508C29.8343 62.2429 30.4611 62.578 31.1435 62.7137C31.8258 62.8495 32.5331 62.7798 33.1759 62.5135C33.8187 62.2472 34.3681 61.7963 34.7546 61.2177C35.1412 60.6391 35.3475 59.9589 35.3475 59.2631C35.3464 58.3303 34.9755 57.436 34.316 56.7764C33.6565 56.1169 32.7624 55.7458 31.8297 55.7448Z" fill="#6C63FF"/>
<path d="M106.288 133.733H8.49524V84.7121L21.1591 94.5633L94.0932 94.0941L106.288 84.7121V133.733Z" fill="#3F3D56"/>
<path d="M31.8295 122.357H13.5374V124.937H31.8295V122.357Z" fill="#F2F2F2"/>
<path d="M23.1375 117.512C22.7342 117.512 22.34 117.393 22.0047 117.169C21.6694 116.945 21.4081 116.626 21.2538 116.254C21.0995 115.881 21.0591 115.471 21.1378 115.075C21.2164 114.68 21.4106 114.316 21.6958 114.031C21.9809 113.746 22.3442 113.552 22.7397 113.473C23.1352 113.394 23.5452 113.435 23.9177 113.589C24.2903 113.743 24.6087 114.005 24.8328 114.34C25.0568 114.676 25.1764 115.07 25.1764 115.473C25.1758 116.014 24.9608 116.532 24.5785 116.914C24.1963 117.297 23.678 117.512 23.1375 117.512ZM23.1375 113.774C22.8014 113.774 22.4729 113.873 22.1935 114.06C21.9141 114.247 21.6963 114.512 21.5677 114.823C21.4391 115.133 21.4055 115.475 21.471 115.805C21.5366 116.134 21.6984 116.437 21.936 116.675C22.1737 116.912 22.4764 117.074 22.806 117.14C23.1356 117.205 23.4772 117.172 23.7877 117.043C24.0982 116.915 24.3635 116.697 24.5502 116.417C24.7369 116.138 24.8366 115.809 24.8366 115.473C24.8361 115.023 24.6569 114.591 24.3384 114.272C24.0198 113.953 23.588 113.774 23.1375 113.774Z" fill="white"/>
<path d="M142.835 59.6912C142.835 59.6912 143.854 63.5997 144.194 63.7697C144.534 63.9396 148.272 67.1684 145.723 67.6782C143.174 68.188 141.305 68.018 140.796 67.5082C140.286 66.9984 140.456 66.4886 139.606 66.3187C138.757 66.1488 137.228 65.639 137.397 64.4494C137.567 63.2599 138.417 60.0311 138.927 59.6912C139.436 59.3513 142.835 59.6912 142.835 59.6912Z" fill="#2F2E41"/>
<path d="M128.053 68.3573C128.053 68.3573 129.582 69.5469 128.732 71.756C127.883 73.9652 126.693 76.3443 126.693 76.3443C126.693 76.3443 125.334 80.5927 123.125 79.9129C122.228 79.6368 121.779 78.8839 121.563 78.0871C121.407 77.4851 121.381 76.8566 121.488 76.2438C121.594 75.631 121.83 75.048 122.18 74.5338L123.465 72.6057L124.824 69.0371L128.053 68.3573Z" fill="#2F2E41"/>
<path d="M124.323 84.8096C127.369 84.8096 131.137 83.8004 134.81 80.153C143.8 71.2231 152.34 70.3274 152.426 70.3195L152.394 69.9809C152.307 69.9891 143.646 70.897 134.57 79.9117C129.907 84.5439 125.093 84.8277 121.877 84.2497C119.752 83.8638 117.728 83.0481 115.93 81.8527L115.729 82.1268C117.566 83.3499 119.633 84.1852 121.803 84.5817C122.635 84.7326 123.478 84.8089 124.323 84.8096Z" fill="#2F2E41"/>
<path d="M147.847 77.4489C148.973 77.4489 149.886 76.5359 149.886 75.4097C149.886 74.2835 148.973 73.3705 147.847 73.3705C146.721 73.3705 145.808 74.2835 145.808 75.4097C145.808 76.5359 146.721 77.4489 147.847 77.4489Z" fill="#2F2E41"/>
<path d="M133.405 86.9649C134.531 86.9649 135.444 86.0519 135.444 84.9257C135.444 83.7995 134.531 82.8865 133.405 82.8865C132.279 82.8865 131.366 83.7995 131.366 84.9257C131.366 86.0519 132.279 86.9649 133.405 86.9649Z" fill="#2F2E41"/>
<path d="M131.341 17.3525C133.593 17.3525 135.418 15.5268 135.418 13.2748C135.418 11.0227 133.593 9.19702 131.341 9.19702C129.089 9.19702 127.264 11.0227 127.264 13.2748C127.264 15.5268 129.089 17.3525 131.341 17.3525Z" fill="#A0616A"/>
<path d="M134.752 0C134.325 0.610595 133.691 1.04623 132.968 1.22673C131.72 1.56087 132.958 3.43601 132.958 3.43601C132.958 3.43601 132.508 2.75414 133.157 2.03202C133.806 1.3099 134.85 0.816207 134.752 0Z" fill="#2F2E41"/>
<path d="M132.736 5.46276C133.607 5.46276 134.313 4.75683 134.313 3.88603C134.313 3.01522 133.607 2.3093 132.736 2.3093C131.866 2.3093 131.16 3.01522 131.16 3.88603C131.16 4.75683 131.866 5.46276 132.736 5.46276Z" fill="#2F2E41"/>
<path d="M134.749 5.20732C133.464 4.72113 131.324 4.47462 130.223 4.64313L130.374 3.54044C131.433 4.08755 133.563 4.34465 134.9 4.10462L134.749 5.20732Z" fill="#3F3D56"/>
<path d="M131.923 6.4516C131.923 6.4516 130.312 9.13113 126.567 10.1342C122.821 11.1373 126.536 16.7664 126.536 16.7664C126.536 16.7664 125.185 14.7195 127.134 12.5517C129.082 10.3839 132.217 8.90183 131.923 6.4516Z" fill="#2F2E41"/>
<path d="M132.051 6.28897C132.051 6.28897 133.598 9.96943 135.297 10.3174C136.995 10.6653 136.867 16.4808 134.21 17.3529C134.21 17.3529 136.147 13.9436 134.491 11.6571C132.836 9.37069 131.79 7.56322 132.051 6.28897Z" fill="#2F2E41"/>
</g>
<defs>
<clipPath id="clip0_2533_10249">
<rect width="175.686" height="140" fill="white"/>
</clipPath>
</defs>
</svg>
