<svg width="16" height="20" viewBox="0 0 16 20" fill="none" xmlns="http://www.w3.org/2000/svg">
<path d="M15.045 5.1023C15.423 4.71657 15.631 4.2043 15.631 3.65937C15.631 3.11444 15.423 2.60217 15.045 2.21644L13.459 0.59799C13.081 0.212256 12.579 0 12.045 0C11.511 0 11.009 0.212256 10.632 0.596969L0 11.4128V15.9182H4.413L15.045 5.1023ZM12.045 2.04092L13.632 3.65835L12.042 5.27476L10.456 3.65733L12.045 2.04092ZM2 13.8772V12.2598L9.04 5.09822L10.626 6.71667L3.587 13.8772H2ZM0 17.9591H16V20H0V17.9591Z" fill="#173FD4"/>
</svg>
